<?xml version="1.0" standalone="no"?>
<!DOCTYPE svg PUBLIC "-//W3C//DTD SVG 20010904//EN"
 "http://www.w3.org/TR/2001/REC-SVG-20010904/DTD/svg10.dtd">
<svg version="1.0" xmlns="http://www.w3.org/2000/svg"
 width="512.000000pt" height="512.000000pt" viewBox="0 0 512.000000 512.000000"
 preserveAspectRatio="xMidYMid meet">
<metadata>
Created by potrace 1.14, written by Peter Selinger 2001-2017
</metadata>
<g transform="translate(0.000000,512.000000) scale(0.100000,-0.100000)"
fill="#000000" stroke="none">
<path d="M2375 5114 c-662 -68 -1190 -310 -1624 -745 -206 -207 -352 -412
-481 -674 -93 -189 -136 -303 -185 -488 -231 -877 23 -1815 665 -2457 397
-397 893 -643 1465 -726 149 -22 523 -25 665 -5 573 79 1083 328 1480 721 406
401 660 917 741 1500 20 142 17 516 -5 665 -83 570 -329 1067 -721 1460 -397
397 -882 641 -1440 726 -125 19 -463 33 -560 23z m-671 -1418 c53 8 204 -20
225 -41 9 -9 25 -22 35 -29 25 -17 14 -63 -18 -78 -21 -9 -24 -16 -19 -44 4
-27 2 -34 -11 -34 -9 0 -16 -5 -16 -11 0 -7 -11 -8 -32 -3 -56 12 -223 5 -255
-11 -39 -20 -76 -19 -106 5 -14 11 -40 20 -59 20 -52 -1 -209 -43 -248 -66
-19 -12 -46 -25 -60 -29 -29 -9 -181 -102 -225 -138 -16 -13 -41 -30 -55 -37
-41 -22 -118 -109 -131 -148 -6 -20 -18 -44 -26 -53 -20 -23 -7 -112 24 -167
59 -104 309 -295 434 -331 89 -26 195 -67 221 -86 12 -8 32 -15 44 -15 11 0
70 -21 130 -46 60 -25 129 -52 154 -60 58 -17 287 -153 321 -191 43 -46 63
-161 34 -192 -31 -34 -86 -107 -97 -131 -17 -37 -84 -83 -189 -128 -90 -38
-110 -44 -224 -72 -92 -23 -229 -28 -373 -15 -71 7 -74 8 -102 47 -71 98 -41
222 57 235 35 5 43 2 56 -18 9 -13 19 -40 22 -61 8 -41 22 -48 95 -48 49 0
167 25 184 39 6 5 29 12 51 16 70 12 138 36 215 77 41 23 76 41 77 42 1 1 10
19 18 40 l16 39 -54 52 c-29 28 -65 55 -80 58 -24 7 -43 17 -132 74 -18 12
-62 29 -96 38 -35 8 -70 22 -79 29 -17 16 -192 76 -220 76 -10 0 -21 4 -24 9
-11 17 -93 51 -109 45 -10 -3 -21 2 -29 15 -7 12 -21 21 -31 21 -23 0 -189 84
-206 104 -8 9 -24 16 -36 16 -13 0 -30 10 -39 24 -8 14 -24 27 -35 31 -11 3
-31 25 -44 48 -14 23 -41 58 -61 76 -20 19 -36 43 -36 53 0 10 -6 29 -14 41
-22 33 -39 152 -32 213 10 84 44 163 94 216 24 26 53 50 64 54 11 3 27 18 36
33 23 38 165 133 287 194 55 27 107 55 115 62 8 7 44 23 80 35 36 12 69 26 75
31 5 5 18 9 30 9 11 0 40 6 65 15 84 27 209 53 229 48 10 -3 28 0 38 5 10 7
22 7 27 2 5 -5 28 -7 50 -4z m905 -67 l42 -71 -21 -186 c-24 -204 -40 -443
-33 -473 3 -11 11 -19 18 -19 16 0 88 48 98 66 5 8 50 42 100 76 118 79 317
230 432 327 112 95 245 221 245 232 0 5 10 24 22 43 29 45 75 68 124 64 33 -3
40 -7 47 -33 5 -16 13 -38 18 -47 12 -24 11 -44 -3 -70 -25 -44 -191 -213
-233 -238 -24 -14 -53 -38 -65 -52 -12 -15 -69 -66 -129 -112 -59 -46 -114
-92 -122 -102 -7 -9 -44 -37 -81 -61 -38 -23 -68 -47 -68 -53 0 -6 -12 -16
-27 -22 -16 -6 -48 -28 -73 -48 -25 -20 -101 -79 -170 -132 -145 -111 -185
-150 -177 -172 3 -8 47 -36 96 -61 49 -24 105 -58 123 -74 18 -15 48 -32 66
-36 18 -4 36 -13 39 -21 3 -8 20 -22 37 -31 17 -9 46 -29 64 -44 18 -16 39
-29 47 -29 7 0 16 -9 20 -19 3 -11 14 -23 25 -26 10 -3 46 -24 79 -45 34 -22
83 -51 109 -64 26 -13 56 -33 66 -45 11 -12 27 -21 37 -21 10 0 24 -9 31 -19
7 -10 30 -26 51 -34 20 -9 37 -20 37 -26 0 -5 17 -15 38 -22 20 -6 55 -24 77
-39 107 -71 238 -141 287 -151 29 -6 62 -19 73 -29 11 -10 45 -25 75 -33 30
-8 80 -24 110 -35 58 -21 315 -63 388 -62 46 0 77 -22 88 -64 18 -75 -18 -91
-201 -90 -155 1 -235 8 -262 23 -10 6 -56 20 -103 32 -47 12 -122 31 -166 43
-45 11 -91 29 -102 39 -12 11 -26 16 -31 12 -6 -3 -24 3 -39 14 -16 11 -69 40
-118 64 -49 24 -108 54 -131 66 -23 11 -47 21 -53 21 -6 0 -28 16 -50 36 -21
19 -64 48 -97 63 -32 16 -67 38 -77 50 -11 11 -27 21 -38 21 -10 0 -35 15 -55
34 -21 18 -51 40 -68 49 -16 8 -70 40 -118 70 -48 31 -101 59 -117 62 -17 4
-32 11 -36 16 -9 16 -84 50 -94 44 -6 -3 -10 -2 -10 2 0 11 -48 39 -82 47
l-28 6 0 -70 c0 -115 52 -320 81 -320 5 0 30 -19 54 -41 57 -53 60 -84 10
-128 -44 -39 -98 -42 -141 -9 -15 13 -38 21 -49 20 -16 -2 -29 8 -48 37 -15
22 -27 47 -27 55 0 8 -5 18 -10 21 -33 21 -70 224 -70 390 0 99 -5 108 -51 94
-56 -16 -170 -14 -206 4 -35 19 -46 41 -45 98 1 63 24 93 107 138 103 55 224
146 236 178 5 14 9 44 8 67 0 23 2 68 5 101 13 141 37 358 49 460 8 61 15 146
16 190 1 109 10 134 51 157 19 10 40 18 46 18 6 0 30 -32 53 -71z"/>
</g>
</svg>
