<svg xmlns="http://www.w3.org/2000/svg" width="348" height="173" fill="none"><path fill="#000" d="m165.659 58.848 12.193-36.096h14.784l-22.657 57.504c-1.855 4.416-4.352 7.743-7.488 9.983s-6.944 3.36-11.424 3.36c-2.688 0-5.184-.415-7.488-1.247-2.24-.768-4.415-1.984-6.527-3.648l6.239-10.272c2.24 1.792 4.481 2.688 6.721 2.688 1.535 0 2.879-.416 4.031-1.248 1.152-.768 2.08-1.953 2.784-3.553l1.441-3.071-21.409-50.496h15.264l13.536 36.096Zm144.493-36.576c4.352-.064 8.064.896 11.136 2.88a17.614 17.614 0 0 1 4.8 4.598v-6.998h14.688v46.752c0 4.864-1.152 9.088-3.456 12.672-2.304 3.584-5.504 6.336-9.6 8.256-4.096 1.984-8.928 2.975-14.496 2.975-4.352 0-8.448-.64-12.287-1.92-3.776-1.216-7.169-2.816-10.177-4.8l5.472-9.983a29.2 29.2 0 0 0 7.584 3.84c2.688.96 5.504 1.44 8.448 1.44 2.816 0 5.249-.513 7.297-1.537 2.111-.96 3.711-2.368 4.799-4.223 1.152-1.792 1.728-3.904 1.728-6.336v-5.695a17.62 17.62 0 0 1-4.608 4.447c-3.008 1.984-6.656 2.975-10.944 2.975-4.48 0-8.416-1.023-11.807-3.071-3.328-2.112-5.953-5.024-7.873-8.736-1.92-3.776-2.879-8.128-2.879-13.056 0-4.928.927-9.185 2.783-12.769 1.856-3.647 4.448-6.496 7.776-8.543 3.392-2.113 7.264-3.169 11.616-3.169ZM54.03 28.71 43.384 39.355l-6.808-17.083-10.724 26.784h.004l-4.722 11.807h-.009l-5.38 13.44H0l29.28-67.2h15.552L54.03 28.71Zm19.41 45.594H57.313l-3.378-8.474-3.822-11.084 8.236-12.132 1.122-1.123 13.97 32.813Zm23.832 0H84.851V17.538h-7.032v-5.11l19.453-6.562v68.438Zm32.344 0h-12.422V17.538h-7.031v-5.11l19.453-6.562v68.438Zm84.279 0H199.11V22.752h14.785v51.552Zm46.825-52.128c3.84 0 7.167.832 9.983 2.496 2.88 1.6 5.088 3.872 6.624 6.815 1.536 2.944 2.305 6.433 2.305 10.465v32.352h-14.784V46.08c0-3.392-.929-6.049-2.785-7.969-1.791-1.92-4.255-2.88-7.391-2.88-3.648.064-6.529 1.377-8.641 3.937-2.111 2.56-3.168 5.792-3.168 9.695v25.44h-14.784V22.753h14.784v8.991c1.661-2.854 3.771-5.053 6.336-6.592 3.264-1.984 7.105-2.975 11.521-2.975Zm53.272 11.136c-2.368 0-4.48.576-6.336 1.728-1.856 1.152-3.296 2.784-4.32 4.895-.96 2.048-1.472 4.449-1.536 7.2.064 2.689.576 5.089 1.536 7.2 1.024 2.049 2.433 3.649 4.225 4.8 1.855 1.153 3.999 1.728 6.431 1.728 2.368 0 4.448-.575 6.24-1.727 1.856-1.152 3.296-2.752 4.32-4.8 1.024-2.112 1.536-4.512 1.536-7.2 0-2.752-.512-5.153-1.536-7.2-1.024-2.112-2.464-3.744-4.32-4.896-1.792-1.152-3.872-1.728-6.24-1.728ZM58.204 38.516l-2.179 2.18-9.237 13.608 9.237-13.609 2.18-2.18ZM206.503 0c2.368 0 4.288.768 5.76 2.304 1.536 1.536 2.303 3.456 2.303 5.76 0 2.303-.767 4.223-2.303 5.76-1.472 1.535-3.392 2.304-5.76 2.304-2.24 0-4.128-.769-5.664-2.305-1.536-1.536-2.304-3.456-2.304-5.76 0-2.303.768-4.223 2.304-5.76C202.375.769 204.263 0 206.503 0Z"/><path fill="#18399A" d="M38.956 137.464a49.243 49.243 0 0 1-2.375 5.195c-.89 1.682-1.88 3.192-2.969 4.528-1.088 1.335-2.251 2.399-3.488 3.191-1.237.792-2.573 1.187-4.008 1.187-2.325 0-4.082-.766-5.27-2.3-1.187-1.584-2.003-3.513-2.448-5.789a60.724 60.724 0 0 1-2.227 3.117 19.355 19.355 0 0 1-2.523 2.746 13.876 13.876 0 0 1-2.747 1.93c-.94.494-1.88.742-2.82.742-1.286 0-2.375-.272-3.266-.817-.89-.544-1.632-1.286-2.226-2.226-.544-.99-.94-2.103-1.188-3.34a21.594 21.594 0 0 1-.37-4.082v-.891c0-1.83.148-3.711.445-5.64.296-1.93.618-3.711.964-5.344.396-1.633.792-3.043 1.188-4.231.396-1.237.693-2.053.89-2.449.347-.495 1.09-.965 2.227-1.41 1.188-.495 2.35-.693 3.488-.594.545.05.817.272.817.668.05.396 0 .891-.149 1.485-.197.841-.544 2.103-1.039 3.785a323.95 323.95 0 0 0-1.558 5.492c-.495 1.979-.94 3.934-1.336 5.863-.396 1.93-.594 3.538-.594 4.824 0 1.584.247 2.722.742 3.415.495.692 1.262 1.039 2.301 1.039 1.237 0 2.598-.693 4.082-2.079 1.534-1.385 3.018-3.735 4.453-7.05a5.422 5.422 0 0 1-.074-.891v-.965c0-2.226.074-4.354.223-6.383.198-2.028.544-3.809 1.039-5.343.544-1.534 1.261-2.746 2.152-3.637.94-.891 2.152-1.336 3.637-1.336.594 0 1.088.173 1.484.52.396.346.594.841.594 1.484 0 1.583-.57 3.835-1.707 6.754-1.089 2.87-2.4 6.036-3.934 9.5a1.674 1.674 0 0 0-.297.594c.149.94.322 1.929.52 2.968.247 1.039.569 2.004.965 2.895.396.841.866 1.558 1.41 2.152.544.544 1.187.817 1.93.817 1.088 0 2.078-.52 2.968-1.559.94-1.039 1.757-2.301 2.45-3.785a35.672 35.672 0 0 0 1.93-4.676c.544-1.682.964-3.167 1.26-4.453a23.308 23.308 0 0 1-.37-1.559 10.437 10.437 0 0 1-.149-1.855c0-1.534.223-2.845.668-3.934.446-1.088 1.015-1.979 1.707-2.672.743-.742 1.51-1.286 2.301-1.632.841-.347 1.608-.52 2.301-.52 1.237 0 1.855.544 1.855 1.633 0 .792-.197 2.177-.593 4.156-.396 1.93-.965 4.132-1.707 6.606.89.395 2.028.593 3.414.593 1.286 0 2.474-.148 3.562-.445a16.195 16.195 0 0 0 2.969-1.262 17.56 17.56 0 0 0 2.45-1.632c.741-.594 1.459-1.163 2.152-1.708.544-.395.99-.42 1.336-.074.346.347.296.891-.149 1.633-.396.643-1.089 1.386-2.078 2.227-.94.841-2.103 1.657-3.488 2.449-1.336.742-2.845 1.385-4.528 1.93-1.633.494-3.364.742-5.195.742-.297 0-.618-.025-.965-.074a7.865 7.865 0 0 1-1.039-.223Zm27.553-30.875c-.148.544-.445 1.088-.89 1.633a5.738 5.738 0 0 1-1.41 1.261 4.614 4.614 0 0 1-1.56.594c-.544.099-.989 0-1.335-.297-1.04-.791-1.584-1.633-1.633-2.523-.05-.94.173-1.806.668-2.598a6.836 6.836 0 0 1 1.855-2.078c.742-.594 1.386-.94 1.93-1.039.544-.099.99.025 1.336.371.396.297.693.718.89 1.262.198.495.297 1.064.297 1.707.05.643 0 1.212-.148 1.707Zm-10.242 15.808c.247-.296.717-.544 1.41-.742a15.07 15.07 0 0 1 2.152-.445c.742-.148 1.41-.223 2.004-.223.644-.049 1.015-.049 1.114 0 .049.05-.075.569-.372 1.559-.296.989-.668 2.152-1.113 3.488a417.09 417.09 0 0 1-1.41 4.156c-.495 1.386-.866 2.524-1.113 3.414-.248.891-.545 1.905-.89 3.043a81.934 81.934 0 0 0-.966 3.266 23.456 23.456 0 0 0-.52 2.969c-.098.94-.024 1.657.223 2.152.248.594.52 1.015.817 1.262.297.198.618.297.965.297.99 0 2.226-.544 3.71-1.633 1.534-1.089 3.068-2.375 4.602-3.859a75.053 75.053 0 0 0 4.379-4.602c1.336-1.583 2.326-2.845 2.969-3.785.396-.495.791-.817 1.187-.965.446-.148.792-.124 1.04.074.296.198.445.52.445.965.05.445-.1.965-.446 1.559-.791 1.385-1.954 3.043-3.488 4.972a84.573 84.573 0 0 1-4.898 5.493c-1.732 1.731-3.44 3.216-5.121 4.453-1.633 1.237-2.97 1.88-4.008 1.929-.841.05-1.683-.099-2.524-.445a8.302 8.302 0 0 1-2.226-1.262 9.022 9.022 0 0 1-1.633-2.004 5.622 5.622 0 0 1-.742-2.449c-.149-1.237-.149-2.919 0-5.047a61.68 61.68 0 0 1 .816-6.605c.396-2.276.89-4.429 1.484-6.457.644-2.029 1.361-3.538 2.153-4.528Zm42.916 9.129c.198-.297.445-.47.742-.519.347-.099.619-.074.817.074.198.148.297.396.297.742.049.347-.075.817-.372 1.41-.99 1.881-2.3 3.909-3.933 6.086a68.207 68.207 0 0 1-5.047 6.16c-1.781 1.881-3.513 3.439-5.195 4.676-1.683 1.237-3.093 1.856-4.23 1.856-1.634 0-2.994-.322-4.083-.965-1.088-.643-1.954-1.435-2.597-2.375a9.676 9.676 0 0 1-1.262-3.043c-.248-1.138-.322-2.177-.223-3.117.05-.792.223-2.202.52-4.231.297-2.078.692-4.453 1.187-7.125a779.46 779.46 0 0 1 1.633-8.683 275.77 275.77 0 0 1 2.004-8.981l-2.523.297c-.842.099-1.609.149-2.301.149-1.584 0-3.068-.174-4.453-.52-1.435-.396-2.5-.767-3.192-1.113-.396-.198-.569-.47-.52-.817.05-.396.198-.767.446-1.113a3 3 0 0 1 .965-.965c.346-.297.668-.445.965-.445.94.099 1.954.198 3.043.297 1.088.049 2.276.049 3.562 0 .94-.05 1.83-.124 2.672-.223.89-.099 1.757-.223 2.598-.371.643-2.375 1.261-4.428 1.855-6.16.643-1.781 1.212-3.018 1.707-3.711.149-.248.47-.445.965-.594a6.564 6.564 0 0 1 1.707-.37 4.94 4.94 0 0 1 1.707 0c.544.049.94.222 1.188.519.247.395.346 1.41.296 3.043-.05 1.632-.321 3.71-.816 6.234 2.078 0 3.909.124 5.492.371 1.633.198 3.018.445 4.156.742 1.138.248 2.054.52 2.747.817.692.247 1.212.42 1.558.519.346.099.52.347.52.742.049.396-.025.817-.223 1.262-.148.396-.421.742-.816 1.039a1.607 1.607 0 0 1-1.336.297 13.643 13.643 0 0 1-1.707-.297c-.594-.148-1.336-.272-2.227-.371a91.974 91.974 0 0 0-3.043-.297 50.777 50.777 0 0 0-4.156-.148c-.297 0-.643.024-1.04.074h-1.112l-.594 2.375a17.474 17.474 0 0 1-.668 2.375 209.852 209.852 0 0 1-2.227 6.457 285.738 285.738 0 0 1-2.672 6.977 288.64 288.64 0 0 1-3.488 8.386c-.297 2.128-.272 3.761.074 4.899.396 1.088.866 1.88 1.41 2.375.644.544 1.435.841 2.375.89.743.099 1.633-.148 2.672-.742 1.089-.643 2.202-1.484 3.34-2.523a55.472 55.472 0 0 0 3.414-3.414 69.927 69.927 0 0 0 3.266-3.637c.99-1.188 1.855-2.251 2.597-3.192l1.56-2.078Zm34.604 2.45c.346-.396.693-.594 1.039-.594.396-.05.693.049.891.297.247.198.346.519.296.965 0 .445-.198.94-.593 1.484a53.286 53.286 0 0 1-3.266 4.008 60.3 60.3 0 0 1-4.008 3.933 71.28 71.28 0 0 1-4.23 3.637c-1.435 1.138-2.821 2.078-4.157 2.82-1.484.842-2.746 1.262-3.785 1.262-.989 0-1.979-.643-2.968-1.93-.891-1.138-1.336-2.35-1.336-3.636.049-1.336.346-2.994.89-4.973a71.696 71.696 0 0 1 1.41-4.379 37.071 37.071 0 0 0 1.485-4.973c.396-1.583.519-2.919.371-4.007-.149-1.138-.792-1.707-1.93-1.707-.791 0-1.657.272-2.597.816-.891.544-1.806 1.262-2.747 2.152a25.05 25.05 0 0 0-2.597 2.895 37.568 37.568 0 0 0-2.227 3.191c-.396 1.93-.791 3.835-1.187 5.715a654.033 654.033 0 0 0-1.114 5.195 100.234 100.234 0 0 1-1.039 4.899c-.296.247-.618.42-.964.519a3.528 3.528 0 0 1-.965.149c-.347 0-.693-.025-1.04-.074a4.366 4.366 0 0 1-1.113-.446 4.46 4.46 0 0 1-.89-.816c-.297-.297-.52-.718-.668-1.262 2.226-9.153 3.983-16.501 5.269-22.043a2925.22 2925.22 0 0 1 2.969-12.691c.792-3.464 1.336-5.863 1.633-7.199.148-.94.272-1.856.371-2.746.099-.792.148-1.609.148-2.45 0-.841-.074-1.608-.222-2.3a5.884 5.884 0 0 1 1.261-.594c.495-.149.965-.272 1.411-.371a19.314 19.314 0 0 1 1.632-.371 8.366 8.366 0 0 1 1.485-.149c.396 0 .767.05 1.113.149.346.05.569.198.668.445.297.247.421.742.371 1.484 0 .742-.049 1.509-.148 2.301-.198.94-.421 1.954-.668 3.043a169.674 169.674 0 0 1-3.489 11.727c-1.286 3.76-2.473 7.793-3.562 12.097a28.928 28.928 0 0 1 2.301-3.043 22.188 22.188 0 0 1 2.894-2.82 15.758 15.758 0 0 1 3.414-2.152 8.352 8.352 0 0 1 3.785-.891c.693 0 1.336.124 1.93.371a3.35 3.35 0 0 1 1.633 1.113c.495.495.866 1.188 1.113 2.078.248.842.347 1.905.297 3.192 0 .792-.099 1.608-.297 2.449a28.1 28.1 0 0 1-.668 2.82c-.297.99-.692 2.103-1.187 3.34-.446 1.237-.99 2.672-1.633 4.305a45.2 45.2 0 0 0-1.039 2.894c-.247.792-.198 1.485.148 2.079.446.791 1.312.989 2.598.593 1.336-.445 3.315-1.731 5.938-3.859a30.897 30.897 0 0 0 2.003-1.855 90.726 90.726 0 0 0 2.153-2.227c.692-.792 1.336-1.534 1.929-2.227a29.943 29.943 0 0 1 1.485-1.632Zm47.164-17.739c-.049-.148.099-.519.446-1.113.346-.643.717-1.41 1.113-2.301.445-.94.866-1.979 1.262-3.117.445-1.187.742-2.4.89-3.637a11.666 11.666 0 0 0 0-3.711c-.198-1.237-.717-2.424-1.558-3.562-.495-.594-1.237-.916-2.227-.965-.94-.099-2.028.05-3.265.445-1.188.347-2.45.916-3.786 1.707a18.634 18.634 0 0 0-3.562 2.672 16.53 16.53 0 0 0-2.82 3.34c-.743 1.237-1.163 2.499-1.262 3.785-.099 1.039-.074 2.004.074 2.895.198.89.445 1.707.742 2.449.297.742.619 1.435.965 2.078.346.643.668 1.212.965 1.707.396.693 1.014 1.46 1.855 2.301a83.487 83.487 0 0 1 2.746 2.894 37.67 37.67 0 0 1 2.969 3.563c.99 1.336 1.856 2.845 2.598 4.527.742 1.683 1.262 3.563 1.558 5.641.297 2.078.273 4.379-.074 6.902-.544 3.662-1.41 6.705-2.597 9.129-1.188 2.474-2.499 4.453-3.934 5.938-1.385 1.484-2.796 2.548-4.23 3.191-1.435.693-2.623 1.138-3.563 1.336-.742.148-1.633.272-2.672.371-.989.149-2.053.124-3.191-.074-1.089-.149-2.202-.495-3.34-1.039-1.138-.495-2.152-1.287-3.043-2.375a15.289 15.289 0 0 1-2.449-4.008c-.545-1.237-.94-2.672-1.188-4.305-.297-1.583-.173-3.241.371-4.972a9.494 9.494 0 0 1 1.262-1.188c.445-.346.891-.643 1.336-.89a15.514 15.514 0 0 1 1.559-.817 27.557 27.557 0 0 1 1.929-.519 9.537 9.537 0 0 1 1.707-.149 4.222 4.222 0 0 1 1.782.223c-.743.841-1.262 1.633-1.559 2.375a8.134 8.134 0 0 0-.445 1.039c-.198.94-.272 2.053-.223 3.34.099 1.336.371 2.597.816 3.785.495 1.237 1.188 2.276 2.079 3.117.89.891 2.078 1.361 3.562 1.41 3.612.099 6.68-2.721 9.203-8.461.841-1.781 1.262-3.587 1.262-5.418a16.945 16.945 0 0 0-.668-5.269 20.469 20.469 0 0 0-1.856-4.676c-.742-1.484-1.509-2.746-2.3-3.785-.792-1.039-1.757-2.152-2.895-3.34a71.67 71.67 0 0 1-3.266-4.008 34.124 34.124 0 0 1-2.968-4.676c-.841-1.682-1.41-3.513-1.707-5.492-.396-2.771-.149-5.294.742-7.57.94-2.326 2.177-4.354 3.711-6.086 1.583-1.732 3.29-3.142 5.121-4.23 1.88-1.089 3.538-1.782 4.973-2.079 7.966-1.583 13.186-.247 15.66 4.008 1.039 1.633 1.608 3.365 1.707 5.196.099 1.83-.025 3.537-.371 5.121-.297 1.534-.693 2.845-1.188 3.933-.445 1.039-.742 1.608-.89 1.707-.297.297-.767.619-1.411.965-.643.346-1.682.668-3.117.965a4.873 4.873 0 0 1-1.187.148c-.347 0-.718-.024-1.114-.074a3.179 3.179 0 0 1-1.039-.297Zm47.667 19.297c-.693.99-1.584 2.227-2.672 3.711a217.89 217.89 0 0 1-3.414 4.379 71.957 71.957 0 0 1-3.414 4.008c-1.089 1.187-2.004 2.028-2.746 2.523a7.668 7.668 0 0 1-1.708.742 8.985 8.985 0 0 1-2.003.372c-.644.049-1.262 0-1.856-.149a3.933 3.933 0 0 1-1.558-.594c-.446-.346-.817-.841-1.114-1.484-.247-.544-.495-1.262-.742-2.152-.198-.891-.272-2.004-.223-3.34-1.187 1.979-2.498 3.513-3.933 4.601-1.435 1.039-2.796 1.806-4.082 2.301a15.997 15.997 0 0 1-4.453.965c-.693 0-1.435-.247-2.227-.742-.792-.446-1.46-1.163-2.004-2.153-.544-1.039-.89-2.35-1.039-3.933-.148-1.633.05-3.563.594-5.789.693-3.018 1.781-5.765 3.265-8.238 1.534-2.474 3.192-4.577 4.973-6.309 1.781-1.781 3.538-3.117 5.27-4.008 1.731-.891 3.166-1.286 4.304-1.187 1.336.247 2.425.643 3.266 1.187.693.495 1.138 1.237 1.336 2.227.247.94-.149 2.202-1.188 3.785a17.648 17.648 0 0 1 1.707-.297c.495-.05.866-.074 1.114-.074.297 0 .495.024.593.074.05.099.075.322.075.668 0 .297-.075.866-.223 1.707-.148.841-.371 1.979-.668 3.414-.297 1.435-.693 3.29-1.187 5.566-.099.446-.198.866-.297 1.262-.05.347-.124.718-.223 1.113-.049.347-.124.767-.223 1.262l-.371 1.856c-.049.445-.074.94-.074 1.484.05.495.149.965.297 1.41.148.445.371.817.668 1.113.346.248.816.372 1.41.372.495 0 1.138-.297 1.93-.891a26.9 26.9 0 0 0 2.523-2.375 98.4 98.4 0 0 0 2.746-3.192c.99-1.187 1.905-2.325 2.746-3.414a625.56 625.56 0 0 0 2.227-2.894 57.857 57.857 0 0 0 1.484-1.856c.396-.445.792-.692 1.188-.742.396-.099.693 0 .89.297.198.297.223.742.075 1.336-.099.594-.446 1.287-1.039 2.078Zm-21.746 3.266c.247-.99.544-2.153.89-3.488.347-1.336.643-2.623.891-3.86.247-1.237.42-2.251.519-3.043.149-.841.124-1.237-.074-1.187a6.774 6.774 0 0 0-.816.222 3.961 3.961 0 0 1-.965.223 9.92 9.92 0 0 0-1.188.223c.396-.792.619-1.435.668-1.93.099-.544.124-.965.075-1.262-.05-.346-.149-.618-.297-.816-.545-.445-1.509-.074-2.895 1.113-1.336 1.138-2.894 3.266-4.676 6.383a19.48 19.48 0 0 0-1.781 4.156 28.458 28.458 0 0 0-.965 4.082c-.148 1.287-.173 2.425-.074 3.414.099.94.297 1.559.594 1.856.544.544 1.163.816 1.855.816a5.478 5.478 0 0 0 2.078-.594c.743-.395 1.46-.89 2.153-1.484a13.854 13.854 0 0 0 1.929-1.855c.594-.644 1.064-1.237 1.411-1.782.395-.544.618-.94.668-1.187Zm39.576 13.359c-1.138 0-2.128-.222-2.969-.668a5.176 5.176 0 0 1-1.93-1.633 5.61 5.61 0 0 1-.964-2.375c-.149-.94-.099-1.929.148-2.968.149-.693.396-1.608.742-2.746.347-1.188.693-2.45 1.039-3.786a69.727 69.727 0 0 0 1.039-4.082c.347-1.385.569-2.622.668-3.711.099-1.138.05-2.053-.148-2.746-.198-.742-.619-1.113-1.262-1.113-.791 0-1.608.272-2.449.816-.841.495-1.707 1.188-2.598 2.079a35.781 35.781 0 0 0-2.597 3.117 110.98 110.98 0 0 0-2.524 3.562 147.725 147.725 0 0 0-1.113 4.453c-.297 1.237-.569 2.375-.816 3.414-.198.99-.396 1.881-.594 2.672-.198.743-.371 1.46-.52 2.153-.148.494-.593.989-1.336 1.484a13.06 13.06 0 0 1-2.375 1.113c-.841.297-1.558.446-2.152.446-.643 0-.915-.223-.816-.668.049-.297.222-.965.519-2.004.248-1.039.569-2.252.965-3.637.346-1.435.717-2.944 1.113-4.527.396-1.584.767-3.093 1.114-4.528.247-1.138.519-2.399.816-3.785.247-1.187.544-2.573.891-4.156a435.8 435.8 0 0 1 1.335-5.195c.347-.297.693-.52 1.04-.668a5.777 5.777 0 0 1 1.187-.446 5.263 5.263 0 0 1 1.262-.297c.396 0 .791.025 1.187.075.347.049.693.148 1.039.297.396.099.743.272 1.039.519-.148.346-.321.841-.519 1.484a46.623 46.623 0 0 0-.594 1.93 27.103 27.103 0 0 1-.742 2.449 34.037 34.037 0 0 1 2.152-2.671 21.214 21.214 0 0 1 2.672-2.524 14.071 14.071 0 0 1 3.117-1.781 7.993 7.993 0 0 1 3.34-.742c.94 0 1.781.272 2.524.816.742.544 1.311 1.311 1.707 2.301.445.94.692 2.078.742 3.414.099 1.336-.074 2.795-.52 4.379l-.816 3.265a109.288 109.288 0 0 1-.965 3.711 70.94 70.94 0 0 1-1.336 4.602c-.297 1.088-.42 2.029-.371 2.82.099.792.594 1.188 1.484 1.188.891 0 2.004-.545 3.34-1.633 1.386-1.089 2.771-2.4 4.156-3.934a85.516 85.516 0 0 0 3.934-4.675c1.237-1.633 2.177-2.944 2.82-3.934.446-.643.866-1.064 1.262-1.262.396-.198.693-.222.891-.074.247.148.371.495.371 1.039 0 .495-.198 1.138-.594 1.93-.346.692-.891 1.608-1.633 2.746a40.979 40.979 0 0 1-2.523 3.637 102.515 102.515 0 0 1-3.192 3.933 40.325 40.325 0 0 1-3.562 3.563c-1.237 1.039-2.474 1.88-3.711 2.523-1.188.693-2.326 1.039-3.414 1.039Zm35.865 0c-1.138 0-2.127-.222-2.968-.668a5.168 5.168 0 0 1-1.93-1.633 5.612 5.612 0 0 1-.965-2.375c-.148-.94-.099-1.929.149-2.968.148-.693.395-1.608.742-2.746.346-1.188.692-2.45 1.039-3.786a70.532 70.532 0 0 0 1.039-4.082c.346-1.385.569-2.622.668-3.711.099-1.138.049-2.053-.149-2.746-.198-.742-.618-1.113-1.261-1.113-.792 0-1.608.272-2.45.816-.841.495-1.707 1.188-2.597 2.079a35.961 35.961 0 0 0-2.598 3.117 110.98 110.98 0 0 0-2.523 3.562 145.039 145.039 0 0 0-1.114 4.453c-.296 1.237-.569 2.375-.816 3.414-.198.99-.396 1.881-.594 2.672-.198.743-.371 1.46-.519 2.153-.149.494-.594.989-1.336 1.484a13.06 13.06 0 0 1-2.375 1.113c-.841.297-1.559.446-2.153.446-.643 0-.915-.223-.816-.668.05-.297.223-.965.52-2.004a86.26 86.26 0 0 1 .964-3.637c.347-1.435.718-2.944 1.114-4.527.396-1.584.767-3.093 1.113-4.528a1142 1142 0 0 0 .816-3.785c.248-1.187.545-2.573.891-4.156.396-1.583.841-3.315 1.336-5.195.346-.297.693-.52 1.039-.668a5.806 5.806 0 0 1 1.188-.446 5.254 5.254 0 0 1 1.261-.297c.396 0 .792.025 1.188.075.346.049.692.148 1.039.297.396.099.742.272 1.039.519-.149.346-.322.841-.52 1.484a45.196 45.196 0 0 0-.593 1.93 27.12 27.12 0 0 1-.743 2.449 34.055 34.055 0 0 1 2.153-2.671 21.146 21.146 0 0 1 2.672-2.524 14.027 14.027 0 0 1 3.117-1.781 7.99 7.99 0 0 1 3.34-.742c.94 0 1.781.272 2.523.816.742.544 1.311 1.311 1.707 2.301.445.94.693 2.078.742 3.414.099 1.336-.074 2.795-.519 4.379l-.817 3.265a111.43 111.43 0 0 1-.964 3.711 71.58 71.58 0 0 1-1.336 4.602c-.297 1.088-.421 2.029-.372 2.82.099.792.594 1.188 1.485 1.188.89 0 2.004-.545 3.34-1.633 1.385-1.089 2.771-2.4 4.156-3.934a85.968 85.968 0 0 0 3.934-4.675c1.237-1.633 2.177-2.944 2.82-3.934.445-.643.866-1.064 1.262-1.262.395-.198.692-.222.89-.074.248.148.371.495.371 1.039 0 .495-.198 1.138-.593 1.93-.347.692-.891 1.608-1.633 2.746a41.003 41.003 0 0 1-2.524 3.637 101.52 101.52 0 0 1-3.191 3.933 40.334 40.334 0 0 1-3.563 3.563c-1.237 1.039-2.474 1.88-3.711 2.523-1.187.693-2.325 1.039-3.414 1.039Zm51.897-16.625c-.693.99-1.583 2.227-2.672 3.711a210.839 210.839 0 0 1-3.414 4.379 71.957 71.957 0 0 1-3.414 4.008c-1.088 1.187-2.004 2.028-2.746 2.523a7.68 7.68 0 0 1-1.707.742 8.983 8.983 0 0 1-2.004.372 5.77 5.77 0 0 1-1.855-.149 3.938 3.938 0 0 1-1.559-.594c-.445-.346-.816-.841-1.113-1.484-.248-.544-.495-1.262-.742-2.152-.198-.891-.273-2.004-.223-3.34-1.188 1.979-2.499 3.513-3.934 4.601-1.435 1.039-2.795 1.806-4.082 2.301a15.982 15.982 0 0 1-4.453.965c-.693 0-1.435-.247-2.226-.742-.792-.446-1.46-1.163-2.004-2.153-.545-1.039-.891-2.35-1.039-3.933-.149-1.633.049-3.563.593-5.789.693-3.018 1.782-5.765 3.266-8.238 1.534-2.474 3.191-4.577 4.973-6.309 1.781-1.781 3.537-3.117 5.269-4.008 1.732-.891 3.167-1.286 4.305-1.187 1.336.247 2.424.643 3.265 1.187.693.495 1.139 1.237 1.336 2.227.248.94-.148 2.202-1.187 3.785a17.648 17.648 0 0 1 1.707-.297c.495-.05.866-.074 1.113-.074.297 0 .495.024.594.074.049.099.074.322.074.668 0 .297-.074.866-.222 1.707-.149.841-.372 1.979-.668 3.414-.297 1.435-.693 3.29-1.188 5.566-.099.446-.198.866-.297 1.262-.049.347-.123.718-.222 1.113-.05.347-.124.767-.223 1.262l-.371 1.856c-.05.445-.074.94-.074 1.484.049.495.148.965.296 1.41.149.445.372.817.668 1.113.347.248.817.372 1.411.372.494 0 1.138-.297 1.929-.891.792-.643 1.633-1.435 2.524-2.375.89-.99 1.806-2.053 2.746-3.192a118.618 118.618 0 0 0 2.746-3.414 696.626 696.626 0 0 0 2.226-2.894 58.25 58.25 0 0 0 1.485-1.856c.396-.445.791-.692 1.187-.742.396-.099.693 0 .891.297.198.297.223.742.074 1.336-.099.594-.445 1.287-1.039 2.078Zm-21.746 3.266c.247-.99.544-2.153.891-3.488.346-1.336.643-2.623.89-3.86.248-1.237.421-2.251.52-3.043.148-.841.123-1.237-.074-1.187-.248.049-.52.123-.817.222a3.95 3.95 0 0 1-.965.223 9.904 9.904 0 0 0-1.187.223c.396-.792.618-1.435.668-1.93.099-.544.123-.965.074-1.262-.049-.346-.148-.618-.297-.816-.544-.445-1.509-.074-2.894 1.113-1.336 1.138-2.895 3.266-4.676 6.383a19.48 19.48 0 0 0-1.781 4.156 28.324 28.324 0 0 0-.965 4.082c-.149 1.287-.173 2.425-.074 3.414.098.94.296 1.559.593 1.856.545.544 1.163.816 1.856.816a5.488 5.488 0 0 0 2.078-.594c.742-.395 1.459-.89 2.152-1.484a13.864 13.864 0 0 0 1.93-1.855c.594-.644 1.064-1.237 1.41-1.782.396-.544.619-.94.668-1.187Z"/><path fill="#18399A" stroke="#18399A" stroke-width="3" d="m76.256 30.587-1.062 1.061-36.216 36.217-1.061 1.06-1.06-1.06-19.475-19.476-1.06-1.06 1.06-1.06 4.868-4.87 1.061-1.06 14.606 14.605 30.288-30.286 1.06-1.06 6.99 6.99Z"/></svg>