<svg xmlns="http://www.w3.org/2000/svg" width="348" height="173" fill="none"><path fill="#fff" d="m166.371 59.544 12.192-36.096h14.785l-22.657 57.504c-1.856 4.416-4.352 7.744-7.488 9.984s-6.944 3.36-11.424 3.36c-2.688 0-5.184-.416-7.488-1.248-2.24-.768-4.416-1.984-6.527-3.648l6.239-10.272c2.24 1.792 4.481 2.688 6.721 2.688 1.535 0 2.879-.416 4.031-1.248 1.152-.768 2.08-1.952 2.784-3.552l1.44-3.072-21.408-50.496h15.264l13.536 36.096Zm144.493-36.576c4.352-.064 8.064.896 11.136 2.88a17.614 17.614 0 0 1 4.8 4.598v-6.998h14.688V70.2c0 4.864-1.152 9.088-3.456 12.672-2.304 3.584-5.504 6.336-9.6 8.256-4.096 1.984-8.929 2.975-14.496 2.975-4.352 0-8.448-.64-12.288-1.92-3.776-1.215-7.168-2.815-10.176-4.8l5.472-9.983a29.185 29.185 0 0 0 7.584 3.84c2.688.96 5.504 1.44 8.448 1.44 2.816 0 5.248-.512 7.296-1.536 2.112-.96 3.712-2.368 4.8-4.224 1.152-1.792 1.728-3.904 1.728-6.336V64.89a17.619 17.619 0 0 1-4.608 4.446c-3.008 1.984-6.656 2.975-10.944 2.975-4.48 0-8.416-1.023-11.808-3.07-3.328-2.113-5.952-5.025-7.872-8.737-1.92-3.776-2.879-8.128-2.88-13.056 0-4.928.928-9.184 2.784-12.768 1.856-3.648 4.448-6.496 7.776-8.544 3.392-2.112 7.264-3.168 11.616-3.168ZM54.742 29.406 44.096 40.052l-6.808-17.084-10.723 26.784h.003L21.846 61.56h-.01L16.457 75H.712l29.28-67.2h15.552l9.198 21.606ZM74.152 75H58.024l-3.377-8.474-3.822-11.084L59.06 43.31l1.123-1.123L74.153 75Zm23.832 0H85.563V18.234H78.53v-5.109l19.453-6.563V75Zm32.344 0h-12.422V18.234h-7.031v-5.109l19.453-6.563V75Zm84.278 0h-14.784V23.448h14.784V75Zm46.826-52.128c3.839 0 7.167.832 9.983 2.496 2.88 1.6 5.088 3.872 6.624 6.816 1.536 2.944 2.305 6.432 2.305 10.464V75H265.56V46.776c0-3.392-.929-6.048-2.785-7.968-1.792-1.92-4.255-2.88-7.391-2.88-3.648.064-6.529 1.376-8.641 3.936s-3.168 5.792-3.168 9.696V75h-14.784V23.448h14.784v8.992c1.661-2.855 3.771-5.053 6.336-6.592 3.264-1.984 7.105-2.976 11.521-2.976Zm53.272 11.136c-2.368 0-4.48.576-6.336 1.728-1.856 1.152-3.296 2.784-4.32 4.896-.96 2.048-1.472 4.448-1.536 7.2.064 2.688.576 5.088 1.536 7.2 1.024 2.048 2.432 3.648 4.224 4.8 1.856 1.152 4 1.728 6.432 1.728 2.368 0 4.448-.576 6.24-1.728 1.856-1.152 3.296-2.752 4.32-4.8 1.024-2.112 1.536-4.512 1.536-7.2 0-2.752-.512-5.152-1.536-7.2-1.024-2.112-2.464-3.744-4.32-4.896-1.792-1.152-3.872-1.728-6.24-1.728ZM58.916 39.212l-2.179 2.18L47.5 55l9.237-13.608 2.179-2.18ZM207.215.696c2.368 0 4.288.768 5.76 2.304 1.536 1.536 2.303 3.456 2.303 5.76s-.767 4.224-2.303 5.76c-1.472 1.535-3.392 2.304-5.76 2.304-2.24 0-4.128-.769-5.664-2.305-1.536-1.535-2.304-3.455-2.304-5.76 0-2.303.768-4.223 2.304-5.759 1.536-1.536 3.424-2.304 5.664-2.304Z"/><path fill="#E6CAFC" d="M39.668 138.16a49.223 49.223 0 0 1-2.375 5.195c-.89 1.683-1.88 3.192-2.969 4.528-1.088 1.336-2.251 2.4-3.488 3.191-1.237.792-2.573 1.188-4.008 1.188-2.325 0-4.082-.767-5.27-2.301-1.187-1.583-2.003-3.513-2.449-5.789a60.724 60.724 0 0 1-2.226 3.117 19.355 19.355 0 0 1-2.524 2.746 13.873 13.873 0 0 1-2.746 1.93c-.94.495-1.88.742-2.82.742-1.286 0-2.375-.272-3.266-.816-.89-.545-1.632-1.287-2.226-2.227-.544-.99-.94-2.103-1.188-3.34a21.588 21.588 0 0 1-.37-4.082v-.89c0-1.831.148-3.711.444-5.641.297-1.93.619-3.711.965-5.344.396-1.633.792-3.043 1.188-4.23.396-1.237.693-2.054.89-2.449.347-.495 1.089-.965 2.227-1.411 1.188-.494 2.35-.692 3.488-.593.545.049.817.272.817.668.05.395 0 .89-.149 1.484-.198.841-.544 2.103-1.039 3.785a323.954 323.954 0 0 0-1.558 5.492c-.495 1.979-.94 3.934-1.336 5.864-.396 1.929-.594 3.537-.594 4.824 0 1.583.247 2.721.742 3.414.495.693 1.262 1.039 2.3 1.039 1.238 0 2.599-.693 4.083-2.078 1.534-1.386 3.018-3.736 4.453-7.051a5.411 5.411 0 0 1-.074-.891v-.964c0-2.227.074-4.355.223-6.383.197-2.029.544-3.81 1.039-5.344.544-1.534 1.261-2.746 2.152-3.637.94-.89 2.152-1.336 3.637-1.336.593 0 1.088.173 1.484.52.396.346.594.841.594 1.484 0 1.584-.57 3.835-1.707 6.754-1.089 2.87-2.4 6.037-3.934 9.5a1.674 1.674 0 0 0-.297.594c.149.94.322 1.93.52 2.969.247 1.039.569 2.004.965 2.894.396.841.866 1.559 1.41 2.153.544.544 1.187.816 1.93.816 1.088 0 2.078-.52 2.968-1.559.94-1.039 1.757-2.3 2.45-3.785a35.602 35.602 0 0 0 1.93-4.676c.543-1.682.964-3.166 1.26-4.453a23.367 23.367 0 0 1-.37-1.558 10.447 10.447 0 0 1-.149-1.856c0-1.534.223-2.845.668-3.933.446-1.089 1.015-1.98 1.707-2.672.742-.742 1.51-1.287 2.301-1.633.841-.346 1.608-.52 2.3-.52 1.238 0 1.856.545 1.856 1.633 0 .792-.198 2.177-.593 4.156-.396 1.93-.965 4.132-1.707 6.606.89.396 2.028.594 3.414.594 1.286 0 2.474-.149 3.562-.446a16.263 16.263 0 0 0 2.969-1.261 17.564 17.564 0 0 0 2.45-1.633c.741-.594 1.459-1.163 2.151-1.707.545-.396.99-.421 1.336-.074.347.346.297.89-.148 1.632-.396.644-1.089 1.386-2.078 2.227-.94.841-2.103 1.657-3.489 2.449-1.335.742-2.844 1.386-4.527 1.93-1.633.495-3.364.742-5.195.742-.297 0-.619-.025-.965-.074a7.865 7.865 0 0 1-1.039-.223Zm27.553-30.875c-.148.544-.445 1.089-.89 1.633a5.744 5.744 0 0 1-1.41 1.262 4.612 4.612 0 0 1-1.56.593c-.544.099-.989 0-1.335-.296-1.04-.792-1.584-1.633-1.633-2.524-.05-.94.173-1.806.668-2.598a6.849 6.849 0 0 1 1.855-2.078c.742-.593 1.386-.94 1.93-1.039.544-.099.99.025 1.336.371.396.297.693.718.89 1.262.198.495.297 1.064.297 1.707.05.643 0 1.212-.148 1.707Zm-10.242 15.809c.247-.297.717-.545 1.41-.742.693-.198 1.41-.347 2.152-.446a10.35 10.35 0 0 1 2.004-.222c.643-.05 1.014-.05 1.113 0 .05.049-.074.569-.37 1.558-.297.99-.669 2.153-1.114 3.488a428.706 428.706 0 0 1-1.41 4.157c-.495 1.385-.866 2.523-1.113 3.414-.248.89-.545 1.905-.891 3.043a81.235 81.235 0 0 0-.965 3.265 23.457 23.457 0 0 0-.52 2.969c-.098.94-.024 1.658.223 2.152.248.594.52 1.015.817 1.262.297.198.618.297.965.297.99 0 2.226-.544 3.71-1.633 1.534-1.088 3.068-2.375 4.602-3.859a75.023 75.023 0 0 0 4.379-4.602c1.336-1.583 2.325-2.845 2.969-3.785.395-.495.791-.816 1.187-.965.446-.148.792-.123 1.04.075.296.197.445.519.445.964.049.446-.1.965-.446 1.559-.791 1.385-1.954 3.043-3.488 4.973a84.558 84.558 0 0 1-4.898 5.492c-1.732 1.732-3.44 3.216-5.122 4.453-1.632 1.237-2.968 1.88-4.007 1.93a5.684 5.684 0 0 1-2.524-.446 8.325 8.325 0 0 1-2.226-1.261 9.067 9.067 0 0 1-1.633-2.004c-.446-.792-.693-1.608-.742-2.45-.149-1.237-.149-2.919 0-5.046.148-2.177.42-4.379.816-6.606.396-2.276.89-4.428 1.484-6.457.644-2.029 1.361-3.538 2.153-4.527Zm42.916 9.129c.198-.297.445-.47.742-.52.347-.099.619-.074.817.074.198.149.296.396.296.743.05.346-.074.816-.371 1.41-.989 1.88-2.3 3.909-3.933 6.086a68.33 68.33 0 0 1-5.047 6.16c-1.781 1.88-3.513 3.439-5.195 4.676-1.683 1.237-3.093 1.855-4.23 1.855-1.634 0-2.994-.322-4.083-.965s-1.954-1.435-2.598-2.375a9.666 9.666 0 0 1-1.261-3.043c-.248-1.138-.322-2.177-.223-3.117.05-.792.223-2.202.52-4.23.297-2.079.692-4.454 1.187-7.125.495-2.722 1.04-5.616 1.633-8.684a275.697 275.697 0 0 1 2.004-8.98l-2.524.296c-.84.099-1.608.149-2.3.149-1.584 0-3.068-.173-4.453-.52-1.435-.396-2.5-.767-3.192-1.113-.396-.198-.569-.47-.52-.816.05-.396.198-.767.446-1.114.247-.396.569-.717.965-.965.346-.296.668-.445.965-.445.94.099 1.954.198 3.042.297 1.089.05 2.277.05 3.563 0a41.26 41.26 0 0 0 2.672-.223c.89-.099 1.756-.222 2.598-.371.643-2.375 1.261-4.428 1.855-6.16.643-1.781 1.212-3.018 1.707-3.71.148-.248.47-.446.965-.595a6.569 6.569 0 0 1 1.707-.37 4.945 4.945 0 0 1 1.707 0c.544.049.94.222 1.187.519.248.396.347 1.41.297 3.043-.05 1.633-.321 3.711-.816 6.234 2.078 0 3.909.124 5.492.371 1.633.198 3.018.446 4.156.743 1.138.247 2.054.519 2.746.816.693.247 1.213.42 1.559.519.346.099.52.347.52.743.049.395-.025.816-.223 1.261-.149.396-.421.743-.817 1.039a1.604 1.604 0 0 1-1.335.297 13.626 13.626 0 0 1-1.707-.297c-.594-.148-1.336-.272-2.227-.371a91.974 91.974 0 0 0-3.043-.297 50.777 50.777 0 0 0-4.156-.148c-.297 0-.644.025-1.04.074h-1.113l-.593 2.375a17.475 17.475 0 0 1-.668 2.375 208.668 208.668 0 0 1-2.227 6.457 285.738 285.738 0 0 1-2.672 6.977 288.645 288.645 0 0 1-3.488 8.387c-.297 2.127-.272 3.76.074 4.898.396 1.089.866 1.88 1.41 2.375.644.544 1.435.841 2.375.891.743.099 1.633-.149 2.672-.743 1.089-.643 2.202-1.484 3.34-2.523a55.5 55.5 0 0 0 3.414-3.414 69.474 69.474 0 0 0 3.266-3.637c.99-1.187 1.855-2.251 2.597-3.191l1.559-2.078Zm34.604 2.449c.346-.396.692-.594 1.039-.594.396-.049.693.05.89.297.248.198.347.52.297.965 0 .445-.198.94-.593 1.484a53.132 53.132 0 0 1-3.266 4.008 60.559 60.559 0 0 1-4.008 3.934 71.633 71.633 0 0 1-4.23 3.636c-1.435 1.138-2.821 2.078-4.157 2.821-1.484.841-2.746 1.261-3.785 1.261-.989 0-1.979-.643-2.969-1.929-.89-1.138-1.335-2.351-1.335-3.637.049-1.336.346-2.994.89-4.973a71.92 71.92 0 0 1 1.41-4.379 37.06 37.06 0 0 0 1.485-4.972c.396-1.584.519-2.92.371-4.008-.149-1.138-.792-1.707-1.93-1.707-.792 0-1.657.272-2.598.816-.89.545-1.806 1.262-2.746 2.153a25.036 25.036 0 0 0-2.597 2.894 37.738 37.738 0 0 0-2.227 3.192 1263.19 1263.19 0 0 1-1.187 5.714 664.53 664.53 0 0 0-1.114 5.196c-.346 1.83-.692 3.463-1.039 4.898a2.614 2.614 0 0 1-.965.52 3.518 3.518 0 0 1-.964.148c-.347 0-.693-.025-1.04-.074a4.363 4.363 0 0 1-1.113-.445 4.435 4.435 0 0 1-.89-.817c-.297-.297-.52-.717-.668-1.262 2.226-9.153 3.983-16.501 5.269-22.042 1.287-5.542 2.276-9.773 2.969-12.692.792-3.463 1.336-5.863 1.633-7.199.148-.94.272-1.856.371-2.746a19.73 19.73 0 0 0 .148-2.449c0-.842-.074-1.608-.222-2.301a5.834 5.834 0 0 1 1.261-.594c.495-.148.965-.272 1.411-.371a19.314 19.314 0 0 1 1.632-.371 8.366 8.366 0 0 1 1.485-.149c.396 0 .767.05 1.113.149.346.05.569.198.668.445.297.248.421.742.371 1.485 0 .742-.049 1.509-.148 2.3-.198.94-.421 1.955-.668 3.043a169.674 169.674 0 0 1-3.489 11.727c-1.286 3.76-2.474 7.793-3.562 12.098.643-.99 1.41-2.004 2.301-3.043.89-1.04 1.855-1.98 2.894-2.821a15.797 15.797 0 0 1 3.414-2.152 8.349 8.349 0 0 1 3.785-.891c.693 0 1.336.124 1.93.371a3.345 3.345 0 0 1 1.633 1.114c.495.494.866 1.187 1.113 2.078.248.841.347 1.905.297 3.191 0 .792-.099 1.608-.297 2.449a28.05 28.05 0 0 1-.668 2.821 40.314 40.314 0 0 1-1.187 3.34c-.446 1.237-.99 2.671-1.633 4.304a44.983 44.983 0 0 0-1.039 2.895c-.248.791-.198 1.484.148 2.078.446.792 1.311.989 2.598.594 1.336-.446 3.315-1.732 5.937-3.86a30.629 30.629 0 0 0 2.004-1.855 88.972 88.972 0 0 0 2.153-2.227c.692-.791 1.336-1.534 1.929-2.226a30.024 30.024 0 0 1 1.485-1.633Zm47.164-17.738c-.049-.149.099-.52.446-1.114.346-.643.717-1.41 1.113-2.3.445-.941.866-1.98 1.262-3.118.445-1.187.742-2.399.89-3.636a11.666 11.666 0 0 0 0-3.711c-.198-1.237-.717-2.425-1.558-3.563-.495-.594-1.237-.915-2.227-.965-.94-.099-2.029.05-3.266.446-1.187.346-2.449.915-3.785 1.707a18.57 18.57 0 0 0-3.562 2.672 16.533 16.533 0 0 0-2.821 3.339c-.742 1.237-1.162 2.499-1.261 3.786-.099 1.039-.074 2.003.074 2.894.198.891.445 1.707.742 2.449.297.742.619 1.435.965 2.078.346.644.668 1.213.965 1.707.396.693 1.014 1.46 1.855 2.301a83.629 83.629 0 0 1 2.746 2.895 37.526 37.526 0 0 1 2.969 3.562c.99 1.336 1.856 2.845 2.598 4.528.742 1.682 1.262 3.562 1.558 5.64.297 2.078.273 4.379-.074 6.903-.544 3.661-1.41 6.704-2.597 9.128-1.188 2.474-2.499 4.454-3.934 5.938-1.385 1.484-2.796 2.548-4.231 3.191-1.434.693-2.622 1.138-3.562 1.336-.742.149-1.633.272-2.672.371-.989.149-2.053.124-3.191-.074-1.089-.148-2.202-.495-3.34-1.039-1.138-.495-2.152-1.286-3.043-2.375a15.289 15.289 0 0 1-2.449-4.008c-.545-1.237-.94-2.672-1.188-4.304-.297-1.584-.173-3.241.371-4.973a9.485 9.485 0 0 1 1.262-1.187 10.34 10.34 0 0 1 1.336-.891 15.514 15.514 0 0 1 1.559-.817 28.12 28.12 0 0 1 1.929-.519 9.52 9.52 0 0 1 1.707-.149 4.217 4.217 0 0 1 1.781.223c-.742.841-1.261 1.633-1.558 2.375a8.134 8.134 0 0 0-.445 1.039c-.198.94-.273 2.054-.223 3.34.099 1.336.371 2.598.816 3.785.495 1.237 1.188 2.276 2.078 3.117.891.891 2.079 1.361 3.563 1.411 3.612.099 6.68-2.722 9.203-8.461.841-1.782 1.262-3.588 1.262-5.418a16.947 16.947 0 0 0-.668-5.27 20.469 20.469 0 0 0-1.856-4.676c-.742-1.484-1.509-2.746-2.3-3.785-.792-1.039-1.757-2.152-2.895-3.34a71.556 71.556 0 0 1-3.266-4.007 34.185 34.185 0 0 1-2.968-4.676c-.841-1.683-1.41-3.513-1.707-5.492-.396-2.771-.149-5.295.742-7.571.94-2.325 2.177-4.354 3.711-6.086 1.583-1.731 3.29-3.142 5.121-4.23 1.88-1.089 3.538-1.781 4.973-2.078 7.966-1.584 13.186-.248 15.66 4.007 1.039 1.633 1.608 3.365 1.707 5.196.099 1.831-.025 3.538-.371 5.121-.297 1.534-.693 2.845-1.188 3.934-.445 1.039-.742 1.608-.891 1.707-.296.296-.766.618-1.41.964-.643.347-1.682.668-3.117.965a4.88 4.88 0 0 1-1.187.149c-.347 0-.718-.025-1.114-.075a3.203 3.203 0 0 1-1.039-.296Zm47.667 19.296c-.693.99-1.584 2.227-2.672 3.711a217.89 217.89 0 0 1-3.414 4.379 71.957 71.957 0 0 1-3.414 4.008c-1.089 1.188-2.004 2.029-2.747 2.524a7.731 7.731 0 0 1-1.707.742 8.982 8.982 0 0 1-2.004.371c-.643.049-1.261 0-1.855-.149a3.943 3.943 0 0 1-1.559-.593c-.445-.347-.816-.841-1.113-1.485-.247-.544-.495-1.261-.742-2.152-.198-.891-.272-2.004-.223-3.34-1.187 1.979-2.498 3.513-3.933 4.602-1.435 1.039-2.796 1.806-4.082 2.3a15.962 15.962 0 0 1-4.453.965c-.693 0-1.435-.247-2.227-.742-.792-.445-1.46-1.163-2.004-2.152-.544-1.039-.891-2.351-1.039-3.934-.148-1.633.05-3.562.594-5.789.692-3.018 1.781-5.764 3.265-8.238 1.534-2.474 3.192-4.577 4.973-6.309 1.781-1.781 3.538-3.117 5.27-4.008 1.731-.89 3.166-1.286 4.304-1.187 1.336.247 2.425.643 3.266 1.187.693.495 1.138 1.237 1.336 2.227.247.94-.149 2.202-1.188 3.785a18.292 18.292 0 0 1 1.707-.297c.495-.049.866-.074 1.114-.074.297 0 .494.025.593.074.05.099.075.322.075.668 0 .297-.075.866-.223 1.707-.148.841-.371 1.979-.668 3.414a588.289 588.289 0 0 1-1.188 5.567c-.098.445-.197.866-.296 1.261-.05.347-.124.718-.223 1.114-.05.346-.124.767-.223 1.261l-.371 1.856c-.049.445-.074.94-.074 1.484.049.495.148.965.297 1.41.148.446.371.817.668 1.114.346.247.816.371 1.41.371.495 0 1.138-.297 1.93-.891.791-.643 1.632-1.435 2.523-2.375a98.328 98.328 0 0 0 2.746-3.191c.99-1.188 1.905-2.326 2.746-3.414a773.313 773.313 0 0 0 2.227-2.895 58.106 58.106 0 0 0 1.484-1.855c.396-.446.792-.693 1.188-.742.396-.099.692 0 .89.296.198.297.223.743.075 1.336-.099.594-.446 1.287-1.039 2.078Zm-21.747 3.266c.248-.989.545-2.152.891-3.488a71.42 71.42 0 0 0 .891-3.86c.247-1.237.42-2.251.519-3.043.149-.841.124-1.237-.074-1.187-.247.049-.52.124-.816.223a3.965 3.965 0 0 1-.965.222c-.396.05-.792.124-1.188.223.396-.792.619-1.435.668-1.93.099-.544.124-.965.074-1.261-.049-.347-.148-.619-.296-.817-.545-.445-1.51-.074-2.895 1.113-1.336 1.138-2.895 3.266-4.676 6.383a19.502 19.502 0 0 0-1.781 4.156 28.458 28.458 0 0 0-.965 4.082c-.148 1.287-.173 2.425-.074 3.415.099.94.297 1.558.594 1.855.544.544 1.162.816 1.855.816a5.494 5.494 0 0 0 2.078-.593 11.98 11.98 0 0 0 2.153-1.485 13.797 13.797 0 0 0 1.929-1.855c.594-.643 1.064-1.237 1.41-1.781.396-.545.619-.941.668-1.188Zm39.577 13.359c-1.138 0-2.128-.222-2.969-.667a5.177 5.177 0 0 1-1.93-1.633 5.621 5.621 0 0 1-.964-2.375c-.149-.94-.099-1.93.148-2.969.148-.693.396-1.608.742-2.746a127.84 127.84 0 0 0 1.039-3.785 70.74 70.74 0 0 0 1.039-4.082c.347-1.386.569-2.623.668-3.711.099-1.138.05-2.054-.148-2.746-.198-.743-.619-1.114-1.262-1.114-.792 0-1.608.272-2.449.817-.841.495-1.707 1.187-2.598 2.078-.841.89-1.707 1.93-2.597 3.117a109.481 109.481 0 0 0-2.524 3.563 146.233 146.233 0 0 0-1.113 4.453 2607.25 2607.25 0 0 0-.817 3.414c-.197.989-.395 1.88-.593 2.672a45.222 45.222 0 0 0-.52 2.152c-.148.495-.594.99-1.336 1.484-.742.446-1.534.817-2.375 1.114-.841.297-1.558.445-2.152.445-.643 0-.915-.223-.816-.668.049-.297.222-.965.519-2.004.247-1.039.569-2.251.965-3.637.346-1.435.717-2.944 1.113-4.527.396-1.583.767-3.092 1.113-4.527.248-1.138.52-2.4.817-3.785.247-1.188.544-2.573.89-4.157.396-1.583.842-3.315 1.336-5.195.347-.297.693-.52 1.039-.668a5.801 5.801 0 0 1 1.188-.445 5.17 5.17 0 0 1 1.262-.297c.396 0 .791.025 1.187.074.347.049.693.148 1.039.297.396.099.742.272 1.039.519-.148.347-.321.842-.519 1.485a47.033 47.033 0 0 0-.594 1.929 27.12 27.12 0 0 1-.742 2.45 33.863 33.863 0 0 1 2.152-2.672 21.36 21.36 0 0 1 2.672-2.524 14.071 14.071 0 0 1 3.117-1.781 7.993 7.993 0 0 1 3.34-.742c.94 0 1.781.272 2.524.816.742.545 1.311 1.312 1.707 2.301.445.94.692 2.078.742 3.414.099 1.336-.074 2.796-.52 4.379l-.816 3.266a111.716 111.716 0 0 1-.965 3.711 71.108 71.108 0 0 1-1.336 4.601c-.297 1.089-.421 2.029-.371 2.821.099.791.594 1.187 1.484 1.187.891 0 2.004-.544 3.34-1.633 1.386-1.088 2.771-2.4 4.156-3.933a85.534 85.534 0 0 0 3.934-4.676c1.237-1.633 2.177-2.944 2.82-3.934.446-.643.866-1.064 1.262-1.261.396-.198.693-.223.891-.075.247.149.371.495.371 1.039 0 .495-.198 1.138-.594 1.93-.346.693-.891 1.608-1.633 2.746a41.192 41.192 0 0 1-2.523 3.637 101.747 101.747 0 0 1-3.192 3.933 40.325 40.325 0 0 1-3.562 3.563c-1.237 1.039-2.474 1.88-3.711 2.523-1.188.693-2.326 1.039-3.414 1.039Zm35.865 0c-1.138 0-2.127-.222-2.968-.667a5.177 5.177 0 0 1-1.93-1.633 5.61 5.61 0 0 1-.965-2.375c-.148-.94-.099-1.93.148-2.969.149-.693.396-1.608.743-2.746.346-1.188.692-2.449 1.039-3.785a70.74 70.74 0 0 0 1.039-4.082c.346-1.386.569-2.623.668-3.711.099-1.138.049-2.054-.149-2.746-.198-.743-.618-1.114-1.261-1.114-.792 0-1.608.272-2.45.817-.841.495-1.707 1.187-2.597 2.078-.841.89-1.707 1.93-2.598 3.117a111.042 111.042 0 0 0-2.523 3.563 143.6 143.6 0 0 0-1.114 4.453c-.297 1.237-.569 2.375-.816 3.414-.198.989-.396 1.88-.594 2.672a43.997 43.997 0 0 0-.519 2.152c-.149.495-.594.99-1.336 1.484-.742.446-1.534.817-2.375 1.114-.841.297-1.559.445-2.153.445-.643 0-.915-.223-.816-.668.049-.297.223-.965.519-2.004a86.83 86.83 0 0 1 .965-3.637c.347-1.435.718-2.944 1.114-4.527.395-1.583.767-3.092 1.113-4.527.247-1.138.519-2.4.816-3.785.248-1.188.545-2.573.891-4.157.396-1.583.841-3.315 1.336-5.195.346-.297.693-.52 1.039-.668a5.815 5.815 0 0 1 1.187-.445 5.18 5.18 0 0 1 1.262-.297c.396 0 .792.025 1.188.074.346.049.692.148 1.039.297.396.099.742.272 1.039.519-.149.347-.322.842-.52 1.485a47.033 47.033 0 0 0-.594 1.929 26.803 26.803 0 0 1-.742 2.45 33.882 33.882 0 0 1 2.153-2.672 21.29 21.29 0 0 1 2.672-2.524 14.027 14.027 0 0 1 3.117-1.781 7.99 7.99 0 0 1 3.34-.742c.94 0 1.781.272 2.523.816.742.545 1.311 1.312 1.707 2.301.445.94.693 2.078.742 3.414.099 1.336-.074 2.796-.519 4.379l-.817 3.266a109.288 109.288 0 0 1-.965 3.711 70.478 70.478 0 0 1-1.336 4.601c-.296 1.089-.42 2.029-.371 2.821.099.791.594 1.187 1.485 1.187.89 0 2.004-.544 3.34-1.633 1.385-1.088 2.77-2.4 4.156-3.933a85.963 85.963 0 0 0 3.933-4.676c1.237-1.633 2.178-2.944 2.821-3.934.445-.643.866-1.064 1.261-1.261.396-.198.693-.223.891-.075.248.149.371.495.371 1.039 0 .495-.198 1.138-.594 1.93-.346.693-.89 1.608-1.632 2.746a41.003 41.003 0 0 1-2.524 3.637 100.766 100.766 0 0 1-3.191 3.933 40.334 40.334 0 0 1-3.563 3.563c-1.237 1.039-2.474 1.88-3.711 2.523-1.187.693-2.325 1.039-3.414 1.039Zm51.897-16.625c-.693.99-1.583 2.227-2.672 3.711a210.839 210.839 0 0 1-3.414 4.379 71.957 71.957 0 0 1-3.414 4.008c-1.089 1.188-2.004 2.029-2.746 2.524a7.773 7.773 0 0 1-1.707.742 8.982 8.982 0 0 1-2.004.371 5.77 5.77 0 0 1-1.855-.149 3.937 3.937 0 0 1-1.559-.593c-.445-.347-.816-.841-1.113-1.485-.248-.544-.495-1.261-.743-2.152-.197-.891-.272-2.004-.222-3.34-1.188 1.979-2.499 3.513-3.934 4.602-1.435 1.039-2.795 1.806-4.082 2.3a15.954 15.954 0 0 1-4.453.965c-.693 0-1.435-.247-2.227-.742-.791-.445-1.459-1.163-2.003-2.152-.545-1.039-.891-2.351-1.039-3.934-.149-1.633.049-3.562.593-5.789.693-3.018 1.782-5.764 3.266-8.238 1.534-2.474 3.191-4.577 4.973-6.309 1.781-1.781 3.537-3.117 5.269-4.008 1.732-.89 3.167-1.286 4.305-1.187 1.336.247 2.424.643 3.265 1.187.693.495 1.138 1.237 1.336 2.227.248.94-.148 2.202-1.187 3.785a18.292 18.292 0 0 1 1.707-.297c.495-.049.866-.074 1.113-.074.297 0 .495.025.594.074.049.099.074.322.074.668 0 .297-.074.866-.223 1.707-.148.841-.371 1.979-.668 3.414a553.818 553.818 0 0 1-1.187 5.567c-.099.445-.198.866-.297 1.261-.049.347-.124.718-.223 1.114-.049.346-.123.767-.222 1.261l-.371 1.856c-.05.445-.075.94-.075 1.484.05.495.149.965.297 1.41.149.446.371.817.668 1.114.347.247.817.371 1.41.371.495 0 1.139-.297 1.93-.891.792-.643 1.633-1.435 2.524-2.375a99.584 99.584 0 0 0 2.746-3.191 121.44 121.44 0 0 0 2.746-3.414 763.867 763.867 0 0 0 2.226-2.895 58.504 58.504 0 0 0 1.485-1.855c.396-.446.791-.693 1.187-.742.396-.099.693 0 .891.296.198.297.223.743.074 1.336-.099.594-.445 1.287-1.039 2.078Zm-21.746 3.266c.247-.989.544-2.152.891-3.488.346-1.336.643-2.623.89-3.86.248-1.237.421-2.251.52-3.043.148-.841.123-1.237-.075-1.187a6.792 6.792 0 0 0-.816.223 3.954 3.954 0 0 1-.965.222c-.396.05-.791.124-1.187.223.396-.792.618-1.435.668-1.93.099-.544.123-.965.074-1.261-.05-.347-.149-.619-.297-.817-.544-.445-1.509-.074-2.894 1.113-1.336 1.138-2.895 3.266-4.676 6.383a19.555 19.555 0 0 0-1.782 4.156 28.448 28.448 0 0 0-.964 4.082c-.149 1.287-.174 2.425-.075 3.415.099.94.297 1.558.594 1.855.544.544 1.163.816 1.856.816.692-.049 1.385-.247 2.078-.593a11.974 11.974 0 0 0 2.152-1.485 13.807 13.807 0 0 0 1.93-1.855c.594-.643 1.064-1.237 1.41-1.781.396-.545.618-.941.668-1.188Z"/><path fill="#E6CAFC" stroke="#E6CAFC" stroke-width="3" d="m76.968 31.284-1.062 1.06L39.69 68.561l-1.061 1.06-1.06-1.06-19.475-19.476-1.06-1.06 1.06-1.06 4.868-4.87 1.061-1.06L38.63 55.64l30.288-30.286 1.06-1.06 6.99 6.99Z"/></svg>